<?xml version="1.0" encoding="utf-8"?>
<!-- Generator: Adobe Illustrator 18.1.1, SVG Export Plug-In . SVG Version: 6.00 Build 0)  -->
<!DOCTYPE svg PUBLIC "-//W3C//DTD SVG 1.1//EN" "http://www.w3.org/Graphics/SVG/1.1/DTD/svg11.dtd">
<svg version="1.1" xmlns="http://www.w3.org/2000/svg" xmlns:xlink="http://www.w3.org/1999/xlink" x="0px" y="0px"
	 viewBox="0 0 283.46 283.46" enable-background="new 0 0 283.46 283.46" xml:space="preserve">
<g id="bkg" display="none">
</g>
<g id="picto">
	<path fill="#FFFFFF" d="M239.695,277.792H43.765c-21.041,0-38.098-17.057-38.098-38.098V43.764
		c0-21.041,17.057-38.098,38.098-38.098h195.93c21.041,0,38.098,17.057,38.098,38.098v195.93
		C277.793,260.735,260.736,277.792,239.695,277.792z"/>
	<g>
		<path fill="#8C4799" d="M-0.002,35.076c0-19.134,15.945-35.079,35.079-35.079h212.599c19.842,0,35.787,15.945,35.787,35.079
			v212.599c0,19.843-15.945,35.787-35.787,35.787H35.076c-19.134,0-35.079-15.945-35.079-35.787V35.076z M217.557,36.139
			c-7.795-7.087-41.456-15.236-75.827-15.236c-33.307,0-67.677,8.149-75.118,15.236c-5.315,4.607-10.63,15.237-17.008,28.701
			c-5.315,11.693-9.567,22.677-9.567,29.056v102.401c0,8.149,2.835,11.693,13.818,20.197c8.15,6.378,11.693,9.213,24.095,9.213
			h23.386v15.236h81.85v-15.236h23.031c12.401,0,15.945-2.834,23.74-9.213c10.984-8.858,13.465-12.047,13.465-20.197V93.896
			c0-6.378-4.252-17.362-9.213-29.056C227.832,51.376,222.871,40.746,217.557,36.139z M207.99,251.572V236.69h-13.11v14.882H89.289
			V236.69H75.825v14.882H59.525c-3.898,0-7.087,3.189-7.087,6.732c0,3.898,3.189,7.087,7.087,7.087h165.118
			c3.898,0,6.732-3.189,6.732-7.087c0-3.543-2.835-6.732-6.732-6.732H207.99z M200.549,161.218
			c-1.063,6.024-7.087,10.63-13.11,10.63H96.73c-6.024,0-12.047-4.606-13.111-10.63L66.966,90.706
			c-1.063-6.024,2.835-10.63,8.859-10.63H207.99c6.024,0,10.276,4.606,8.858,10.63L200.549,161.218z M195.588,48.541v6.024
			c0,4.606-3.543,8.504-8.149,8.504H96.73c-4.607,0-8.504-3.897-8.504-8.504v-6.024H195.588z M88.226,198.069
			c0-4.961,3.543-8.858,8.504-8.858c4.96,0,9.212,3.897,9.212,8.858s-4.252,8.504-9.212,8.504
			C91.769,206.573,88.226,203.029,88.226,198.069z M178.58,197.006c0-4.961,3.898-8.858,8.859-8.858c4.96,0,8.858,3.897,8.858,8.858
			s-3.898,8.504-8.858,8.504C182.478,205.51,178.58,201.966,178.58,197.006z"/>
	</g>
</g>
</svg>
